<svg xmlns="http://www.w3.org/2000/svg" viewBox="0 0 407.02 239.62"><defs><style>.cls-1,.cls-2{fill:#1d1d1b;}.cls-2{font-size:100px;font-family:ForteMT, Forte;}</style></defs><g id="Layer_2" data-name="Layer 2"><g id="Layer_1-2" data-name="Layer 1"><path class="cls-1" d="M407,239.62c-3.71-15.94-6.48-32-8.82-48.16s-4.17-32.35-5.45-48.63l-.85-12.22q-.34-6.14-.59-12.26l-.17-6.15-.09-6.16c0-4.12.05-8.24.24-12.4l.17-3.12.25-3.14c.07-1,.19-2.1.33-3.17s.25-2.11.48-3.22a30.48,30.48,0,0,1,.72-3.34l.49-1.74.43-1.3a16.44,16.44,0,0,0,.92-4.71,3.88,3.88,0,0,0-.22-1.49,1.33,1.33,0,0,0-.62-.77,7.38,7.38,0,0,0-4.14-.6,39.26,39.26,0,0,0-11,2.75l.19-.11c-1.79,1-3.61,1.79-5.43,2.57s-3.67,1.45-5.51,2.12-3.69,1.29-5.57,1.85-3.74,1.13-5.64,1.6L362.31,75c1.69-1,3.4-1.86,5.06-2.84A106.75,106.75,0,0,0,377,66h0l.19-.11A49.07,49.07,0,0,1,383,63.08a33.81,33.81,0,0,1,6.35-1.95A18.46,18.46,0,0,1,393,60.8a11,11,0,0,1,4.19.87A8.06,8.06,0,0,1,400.92,65a10.64,10.64,0,0,1,1.38,4.33,22.09,22.09,0,0,1-.61,7.33l-.4,1.63-.23,1.23a24.63,24.63,0,0,0-.36,2.65,114.59,114.59,0,0,0-.37,11.68c0,4,.14,8,.3,12l.25,6,.31,6c.21,4,.43,8.06.69,12.1l.74,12.12c1,16.18,2.05,32.38,2.87,48.62S407,223.25,407,239.62Z"/><text class="cls-2" transform="translate(0 83.55)">Welcome</text></g></g></svg>